<?xml version="1.0" encoding="UTF-8" standalone="no"?>
<!DOCTYPE svg PUBLIC "-//W3C//DTD SVG 1.1//EN" "http://www.w3.org/Graphics/SVG/1.1/DTD/svg11.dtd">
<svg version="1.1" xmlns="http://www.w3.org/2000/svg" xmlns:xlink="http://www.w3.org/1999/xlink" preserveAspectRatio="xMidYMid meet" viewBox="0 0 640 640" width="640" height="640"><defs><path d="M458.79 191.43C469.84 191.43 478.79 200.38 478.79 211.43C478.79 253.8 478.79 360.92 478.79 403.3C478.79 414.34 469.84 423.3 458.79 423.3C416.42 423.3 309.3 423.3 266.92 423.3C255.88 423.3 246.92 414.34 246.92 403.3C246.92 360.92 246.92 253.8 246.92 211.43C246.92 200.38 255.88 191.43 266.92 191.43C309.3 191.43 416.42 191.43 458.79 191.43Z" id="eRpOEHTBc"></path><path d="M467.25 307.36C467.25 364.98 420.47 411.76 362.86 411.76C305.24 411.76 258.46 364.98 258.46 307.36C258.46 249.75 305.24 202.97 362.86 202.97C420.47 202.97 467.25 249.75 467.25 307.36Z" id="c9Thixjw"></path><path d="M379.89 251.32C379.89 264.66 369.06 275.49 355.71 275.49C342.37 275.49 331.54 264.66 331.54 251.32C331.54 237.98 342.37 227.14 355.71 227.14C369.06 227.14 379.89 237.98 379.89 251.32Z" id="a2kUNziQqh"></path><path d="M407.64 292.53L424.4 316.7L390.88 316.7L357.36 316.7L374.12 292.53L390.88 268.35L407.64 292.53Z" id="dLmQitpTY"></path><path d="M337.17 294.18L355.71 316.7L318.63 316.7L281.54 316.7L300.08 294.18L318.63 271.65L337.17 294.18Z" id="b1BGdwdpzM"></path><path d="M281.54 316.7L355.71 316.7L355.71 355.71L281.54 355.71L281.54 316.7Z" id="a3zmpAr28"></path><path d="M357.36 316.7L424.4 316.7L424.4 355.71L357.36 355.71L357.36 316.7Z" id="f17TGPGJEg"></path><path d="M382.91 321.92L404.34 321.92L404.34 355.71L382.91 355.71L382.91 321.92Z" id="b1KKcETrGZ"></path><path d="M310.11 321.92L331.54 321.92L331.54 355.71L310.11 355.71L310.11 321.92Z" id="c27rae7T3A"></path></defs><g><g><g><use xlink:href="#eRpOEHTBc" opacity="1" fill="#8d8d8d" fill-opacity="1"></use></g><g><use xlink:href="#c9Thixjw" opacity="1" fill="#d7bfa9" fill-opacity="1"></use></g><g><use xlink:href="#a2kUNziQqh" opacity="1" fill="#ead500" fill-opacity="1"></use></g><g><use xlink:href="#dLmQitpTY" opacity="1" fill="#92b176" fill-opacity="1"></use></g><g><use xlink:href="#b1BGdwdpzM" opacity="1" fill="#90b66e" fill-opacity="1"></use></g><g><use xlink:href="#a3zmpAr28" opacity="1" fill="#90b66e" fill-opacity="1"></use></g><g><use xlink:href="#f17TGPGJEg" opacity="1" fill="#90b66e" fill-opacity="1"></use></g><g><use xlink:href="#b1KKcETrGZ" opacity="1" fill="#d4efeb" fill-opacity="1"></use></g><g><use xlink:href="#c27rae7T3A" opacity="1" fill="#d4efeb" fill-opacity="1"></use></g></g></g></svg>